<svg xmlns="http://www.w3.org/2000/svg" xmlns:xlink="http://www.w3.org/1999/xlink" width="1000" zoomAndPan="magnify" viewBox="0 0 750 749.999995" height="1000" preserveAspectRatio="xMidYMid meet" version="1.0"><defs><clipPath id="121c703837"><path d="M 39 460 L 711 460 L 711 699.136719 L 39 699.136719 Z M 39 460 " clip-rule="nonzero"/></clipPath></defs><path fill="#000000" d="M 283.375 213.679688 C 296.570312 266.621094 286.90625 311.558594 234.003906 324.742188 C 181.066406 337.921875 109.457031 424.128906 57.898438 295.890625 C 28 221.601562 1.890625 65.863281 31.570312 58.457031 C 61.246094 51.078125 270.203125 160.734375 283.375 213.679688 Z M 283.375 213.679688 " fill-opacity="1" fill-rule="nonzero"/><path fill="#000000" d="M 243.390625 224.773438 C 262.640625 255.628906 206.671875 316.273438 175.851562 335.554688 C 145.007812 354.832031 117.71875 324.480469 87.335938 247 C 74.0625 213.117188 53.929688 121.210938 65.21875 114.152344 C 76.488281 107.109375 224.121094 193.917969 243.390625 224.773438 Z M 243.390625 224.773438 " fill-opacity="1" fill-rule="nonzero"/><path fill="#000000" d="M 466.382812 213.679688 C 453.207031 266.621094 462.832031 311.558594 515.773438 324.742188 C 568.714844 337.921875 640.304688 424.128906 691.878906 295.890625 C 721.761719 221.601562 747.871094 65.863281 718.191406 58.457031 C 688.511719 51.078125 479.578125 160.734375 466.382812 213.679688 Z M 466.382812 213.679688 " fill-opacity="1" fill-rule="nonzero"/><path fill="#000000" d="M 506.386719 224.773438 C 487.136719 255.628906 543.105469 316.273438 573.929688 335.554688 C 604.75 354.832031 632.042969 324.480469 662.421875 247 C 675.699219 213.136719 695.832031 121.234375 684.5625 114.171875 C 673.269531 107.109375 525.660156 193.917969 506.386719 224.773438 Z M 506.386719 224.773438 " fill-opacity="1" fill-rule="nonzero"/><path fill="#000000" d="M 375.019531 202.703125 C 242.226562 158.425781 144.988281 242.304688 65.21875 401.980469 L 109.476562 401.980469 C 109.476562 401.980469 65.21875 446.234375 43.078125 512.660156 C 87.335938 490.511719 109.476562 490.511719 109.476562 490.511719 C 109.476562 490.511719 87.335938 534.808594 87.335938 556.957031 C 153.734375 512.660156 220.109375 512.660156 264.367188 579.085938 C 308.625 645.511719 375.019531 579.085938 375.019531 490.53125 Z M 375.019531 202.703125 " fill-opacity="1" fill-rule="nonzero"/><path fill="#000000" d="M 375.019531 202.703125 C 507.792969 158.425781 605.050781 242.304688 684.800781 401.960938 L 640.566406 401.960938 C 640.566406 401.960938 684.800781 446.214844 706.921875 512.640625 C 662.683594 490.492188 640.566406 490.492188 640.566406 490.492188 C 640.566406 490.492188 662.683594 534.789062 662.683594 556.9375 C 596.289062 512.640625 529.910156 512.640625 485.652344 579.066406 C 441.375 645.492188 375 579.066406 375 490.511719 Z M 375.019531 202.703125 " fill-opacity="1" fill-rule="nonzero"/><path fill="#000000" d="M 375.019531 183.34375 L 374.960938 183.34375 C 147.675781 183.363281 182.347656 270.996094 206.714844 416.703125 C 231.058594 562.472656 259.855469 665.894531 375.019531 665.894531 C 490.144531 665.894531 518.902344 562.472656 543.285156 416.703125 C 567.609375 270.976562 602.261719 183.363281 375.019531 183.34375 Z M 375.019531 183.34375 " fill-opacity="1" fill-rule="nonzero"/><g clip-path="url(#121c703837)"><path fill="#000000" d="M 710.070312 539.484375 C 708.382812 424.96875 523.554688 464.351562 507.792969 479.859375 C 485.652344 501.605469 485.574219 634.4375 374.980469 634.4375 C 264.367188 634.4375 242.226562 501.605469 220.109375 479.859375 C 204.328125 464.351562 34.9375 451.710938 39.109375 539.484375 C 83.367188 517.335938 109.457031 523.753906 109.457031 523.753906 C 109.457031 523.753906 80.878906 540.328125 85.070312 579.609375 C 149.402344 550.355469 179.480469 554.53125 214.574219 572.085938 C 238.898438 644.769531 298.917969 699.136719 375.019531 699.136719 C 451.082031 699.136719 510.300781 643.082031 534.601562 570.417969 C 563.839844 545.339844 608.960938 552.863281 663.265625 578.765625 C 669.121094 541.992188 640.566406 523.753906 640.566406 523.753906 C 640.566406 523.753906 665.832031 517.335938 710.070312 539.484375 Z M 710.070312 539.484375 " fill-opacity="1" fill-rule="nonzero"/></g><path fill="#000000" d="M 706.941406 512.640625 C 688.8125 458.113281 523.554688 431.109375 507.792969 446.617188 C 485.652344 468.363281 485.574219 601.195312 374.980469 601.195312 C 264.367188 601.195312 242.226562 468.363281 220.109375 446.617188 C 204.328125 431.109375 61.246094 458.113281 43.078125 512.640625 C 87.335938 490.492188 109.476562 490.492188 109.476562 490.492188 C 109.476562 490.492188 87.335938 534.789062 87.335938 556.9375 C 140.878906 521.226562 194.402344 514.367188 236.3125 547.871094 C 260.636719 620.554688 298.917969 665.894531 375.019531 665.894531 C 451.082031 665.894531 489.324219 620.574219 513.628906 547.910156 C 555.578125 514.347656 609.140625 521.226562 662.703125 556.9375 C 662.703125 534.789062 640.585938 490.492188 640.585938 490.492188 C 640.585938 490.492188 662.703125 490.511719 706.941406 512.640625 Z M 706.941406 512.640625 " fill-opacity="1" fill-rule="nonzero"/><path fill="#000000" d="M 234.628906 358.082031 C 234.628906 358.082031 234.628906 327.992188 264.707031 327.992188 C 294.789062 327.992188 294.789062 358.082031 294.789062 358.082031 L 294.789062 388.175781 C 294.789062 388.175781 294.789062 418.269531 264.707031 418.269531 C 234.628906 418.269531 234.628906 388.175781 234.628906 388.175781 Z M 455.210938 358.082031 C 455.210938 358.082031 455.210938 327.992188 485.292969 327.992188 C 515.371094 327.992188 515.371094 358.082031 515.371094 358.082031 L 515.371094 388.175781 C 515.371094 388.175781 515.371094 418.269531 485.292969 418.269531 C 455.210938 418.269531 455.210938 388.175781 455.210938 388.175781 Z M 313.617188 574.914062 C 293.144531 579.085938 354.546875 654.519531 375.019531 654.519531 C 395.472656 654.519531 456.878906 579.085938 436.421875 574.914062 C 415.949219 570.738281 334.089844 570.738281 313.617188 574.914062 Z M 313.617188 574.914062 " fill-opacity="1" fill-rule="nonzero"/></svg>